<?xml version="1.0" encoding="UTF-8"?><svg xmlns="http://www.w3.org/2000/svg" viewBox="0 0 503.06 266.92"><defs><style>.d{fill:#fff;}.e{fill:#d4000f;}</style></defs><g id="a"/><g id="b"/><g id="c"><g><ellipse class="e" cx="254.01" cy="132.25" rx="235.03" ry="110.84"/><path class="d" d="M311.38,210.59c-39.59,12.86-82.24,12.86-121.83,0,2.27-6.98,4.54-13.97,6.81-20.95,35.17,11.43,73.05,11.43,108.22,0,2.27,6.98,4.54,13.97,6.81,20.95Z"/><g><path class="d" d="M92.4,174.56c-6.53-5.47-9.8-13.62-9.8-24.45l.18-12.35-.18-8.3c-.47-12.59,1.92-21.91,7.15-27.97,5.24-6.06,13.44-9.09,24.62-9.09h7.23c6,0,10.97,.65,14.91,1.94,3.94,1.3,6.91,3.41,8.91,6.35h.7V58.16h39.54v123.54h-37.95v-11.47h-.7c-2.94,4.35-6.83,7.53-11.65,9.53-4.83,2-10.71,3-17.65,3-10.36,0-18.8-2.73-25.33-8.21Zm50.48-18.97c2.77-4.12,4.15-9.18,4.15-15.18v-4.94c0-6-1.38-11.06-4.15-15.18-2.76-4.12-6.15-6.18-10.14-6.18-3.65,0-6.21,1.03-7.68,3.09-1.47,2.06-2.21,5.39-2.21,9.97v20.83c0,9.18,3.29,13.76,9.89,13.76,4,0,7.38-2.05,10.14-6.18Z"/><path class="d" d="M303.3,174.56c-6.53-5.47-9.8-13.62-9.8-24.45l.18-12.35-.18-8.3c-.47-12.59,1.92-21.91,7.15-27.97,5.24-6.06,13.44-9.09,24.62-9.09h7.23c6,0,10.97,.65,14.91,1.94,3.94,1.3,6.91,3.41,8.91,6.35h.7V58.16h39.54v123.54h-37.95v-11.47h-.7c-2.94,4.35-6.83,7.53-11.65,9.53-4.83,2-10.71,3-17.65,3-10.36,0-18.8-2.73-25.33-8.21Zm50.48-18.97c2.77-4.12,4.15-9.18,4.15-15.18v-4.94c0-6-1.38-11.06-4.15-15.18-2.76-4.12-6.15-6.18-10.14-6.18-3.65,0-6.21,1.03-7.68,3.09-1.47,2.06-2.21,5.39-2.21,9.97v20.83c0,9.18,3.29,13.76,9.89,13.76,4,0,7.38-2.05,10.14-6.18Z"/></g></g></g></svg>