<?xml version="1.0" standalone="no"?>
<!DOCTYPE svg PUBLIC "-//W3C//DTD SVG 20010904//EN"
 "http://www.w3.org/TR/2001/REC-SVG-20010904/DTD/svg10.dtd">
<svg version="1.0" xmlns="http://www.w3.org/2000/svg"
 width="1006.000000pt" height="1006.000000pt" viewBox="0 0 1006.000000 1006.000000"
 preserveAspectRatio="xMidYMid meet">
<metadata>
Created by potrace 1.14, written by Peter Selinger 2001-2017
</metadata>
<g transform="translate(0.000000,1006.000000) scale(0.100000,-0.100000)"
fill="#000000" stroke="none">
<path d="M5048 7275 c-2 -1 -106 -5 -233 -9 -126 -3 -264 -8 -305 -11 -229
-14 -287 -19 -390 -31 -25 -3 -52 -6 -60 -6 -8 0 -44 -4 -80 -8 -36 -5 -92
-12 -125 -15 -69 -7 -113 -14 -135 -20 -8 -2 -42 -7 -75 -10 -33 -3 -69 -8
-80 -10 -22 -5 -61 -12 -115 -21 -42 -7 -327 -63 -355 -70 -11 -3 -31 -7 -45
-10 -14 -2 -104 -25 -200 -50 -96 -24 -182 -46 -190 -48 -23 -6 -114 -34 -220
-69 -52 -17 -97 -32 -100 -32 -35 -9 -68 -21 -89 -31 -14 -8 -31 -14 -37 -14
-13 0 -180 -65 -206 -80 -10 -6 -22 -10 -27 -10 -10 0 -242 -103 -271 -119 -8
-5 -51 -27 -95 -49 -379 -191 -716 -449 -923 -707 -40 -49 -76 -95 -81 -101
-20 -25 -118 -202 -135 -244 -30 -74 -34 -84 -46 -120 -34 -104 -48 -215 -45
-349 2 -75 5 -145 8 -156 3 -11 10 -41 16 -67 45 -194 157 -403 320 -593 54
-63 210 -213 282 -270 40 -33 75 -63 77 -67 2 -5 10 -8 18 -8 8 0 14 -4 14
-10 0 -5 6 -10 14 -10 8 0 16 -4 18 -8 5 -12 183 -132 196 -132 7 0 12 -4 12
-10 0 -5 5 -10 11 -10 6 0 23 -8 37 -18 55 -38 264 -147 402 -210 36 -16 81
-36 101 -45 146 -66 645 -243 744 -263 6 -1 55 -14 110 -29 55 -14 108 -28
118 -31 9 -2 27 -7 40 -10 38 -10 271 -61 317 -70 158 -30 279 -51 339 -60 25
-4 55 -9 66 -11 11 -3 36 -6 56 -8 20 -1 49 -5 65 -9 32 -6 97 -15 147 -21 18
-1 59 -6 92 -9 33 -4 78 -9 100 -11 36 -4 84 -9 237 -21 316 -25 779 -33 1113
-19 249 10 282 12 365 20 41 3 103 8 138 10 34 2 79 6 100 9 20 3 62 8 92 11
30 3 72 8 93 11 21 3 53 7 70 9 31 4 49 6 147 21 25 3 56 8 70 9 74 11 100 15
150 25 30 6 69 13 85 15 17 2 41 6 55 10 14 3 37 8 52 10 15 2 72 14 127 25
54 12 105 23 113 24 7 1 31 8 53 14 22 6 56 14 75 17 19 3 49 10 65 15 17 5
55 16 85 24 30 8 89 25 130 37 41 12 83 24 93 26 64 12 596 205 663 241 21 12
96 46 104 47 12 3 185 89 190 94 3 3 39 24 80 45 126 65 448 277 480 315 3 3
27 24 55 46 51 41 181 169 245 241 72 80 190 249 190 271 0 6 3 13 8 15 22 10
110 236 127 327 3 14 7 37 11 51 10 46 12 254 3 323 -13 87 -51 218 -85 293
-15 33 -28 65 -30 72 -1 8 -8 21 -16 30 -7 10 -19 27 -25 40 -42 74 -33 60
-122 177 -120 158 -323 348 -496 465 -27 19 -51 37 -53 42 -2 4 -8 8 -12 8 -5
0 -28 13 -52 29 -74 49 -123 78 -129 77 -4 -1 -15 6 -25 15 -11 9 -55 35 -99
59 -44 23 -84 45 -90 49 -5 3 -12 6 -15 7 -3 0 -52 23 -110 51 -58 28 -141 65
-185 84 -44 18 -84 37 -89 41 -6 4 -16 8 -23 8 -8 0 -33 9 -55 20 -23 11 -49
20 -58 20 -9 0 -20 4 -26 9 -7 6 -119 48 -154 56 -3 1 -12 4 -20 8 -20 7 -211
68 -230 73 -45 10 -137 36 -150 41 -8 3 -24 8 -35 10 -11 2 -38 8 -60 14 -22
6 -47 13 -55 14 -8 2 -62 15 -120 29 -58 14 -117 28 -132 31 -16 3 -38 7 -50
10 -13 2 -34 6 -48 9 -14 3 -50 10 -80 16 -30 6 -66 13 -80 16 -14 2 -41 7
-60 10 -19 4 -44 8 -55 9 -11 2 -33 6 -50 9 -16 2 -50 8 -75 11 -25 3 -56 8
-70 10 -14 2 -45 7 -70 10 -25 3 -63 8 -85 11 -48 6 -94 11 -155 18 -25 3 -67
7 -95 10 -83 10 -280 25 -395 32 -47 2 -193 7 -325 10 -132 2 -248 6 -257 8
-9 2 -18 3 -20 1z"/>
</g>
</svg>
